<!--
Original Tag image from: https://github.com/FortAwesome/Font-Awesome/blob/6.x/svgs/solid/tag.svg
Modified to change color and rotate
Licensed under CC Attribution 4.0: https://fontawesome.com/license
-->
<svg
   xmlns:dc="http://purl.org/dc/elements/1.1/"
   xmlns:cc="http://creativecommons.org/ns#"
   xmlns:rdf="http://www.w3.org/1999/02/22-rdf-syntax-ns#"
   xmlns:svg="http://www.w3.org/2000/svg"
   xmlns="http://www.w3.org/2000/svg"
   xmlns:sodipodi="http://sodipodi.sourceforge.net/DTD/sodipodi-0.dtd"
   xmlns:inkscape="http://www.inkscape.org/namespaces/inkscape"
   width="200"
   height="200"
   id="svg2"
   version="1.1"
   inkscape:version="0.48.4 r9939"
   sodipodi:docname="tag.svg">
  <defs
     id="defs4" />
  <sodipodi:namedview
     id="base"
     pagecolor="#000000"
     bordercolor="#666666"
     borderopacity="1.0"
     inkscape:pageopacity="1"
     inkscape:pageshadow="2"
     inkscape:zoom="1"
     inkscape:cx="181.77771"
     inkscape:cy="279.72376"
     inkscape:document-units="px"
     inkscape:current-layer="layer1"
     showgrid="false"
     fit-margin-top="0"
     fit-margin-left="0"
     fit-margin-right="0"
     fit-margin-bottom="0"
     inkscape:window-width="1920"
     inkscape:window-height="1017"
     inkscape:window-x="-8"
     inkscape:window-y="-8"
     inkscape:window-maximized="1" />
  <metadata
     id="metadata7">
    <rdf:RDF>
      <cc:Work
         rdf:about="">
        <dc:format>image/svg+xml</dc:format>
        <dc:type
           rdf:resource="http://purl.org/dc/dcmitype/StillImage" />
        <dc:title></dc:title>
      </cc:Work>
    </rdf:RDF>
  </metadata>
  <g
     inkscape:label="Layer 1"
     inkscape:groupmode="layer"
     id="layer1"
     transform="translate(-157.84358,-524.69522)">
    <path
       id="path2987"
       d="m 229.94314,669.26549 -36.08466,-36.08466 c -4.68653,-4.68653 -4.68653,-12.28468 0,-16.97121 l 36.08466,-36.08467 a 12.000453,12.000453 0 0 1 8.4856,-3.5148 l 74.91443,0 c 6.62761,0 12.00041,5.3728 12.00041,12.00041 l 0,72.16933 c 0,6.62761 -5.3728,12.00041 -12.00041,12.00041 l -74.91443,0 a 12.000453,12.000453 0 0 1 -8.4856,-3.51481 z m -13.45639,-53.05587 c -4.68653,4.68653 -4.68653,12.28468 0,16.97121 4.68652,4.68652 12.28467,4.68652 16.9712,0 4.68653,-4.68653 4.68653,-12.28468 0,-16.97121 -4.68653,-4.68652 -12.28468,-4.68652 -16.9712,0 z"
       inkscape:connector-curvature="0"
       style="fill:#ffffff;fill-opacity:1" />
  </g>
</svg>